name C:\Users\u0101727\Documents\MyRepositories\upper-imu-dc\Results\main_tracking\Case_24\SHRUG01_orientations_groundFrame.mot
datacolumns 13
datarows 25
range 1.13000000 1.37000000
endheader 
time	radius_imu_[0][0]	radius_imu_[0][1]	radius_imu_[0][2]	radius_imu_[1][0]	radius_imu_[1][1]	radius_imu_[1][2]	radius_imu_[2][0]	radius_imu_[2][1]	radius_imu_[2][2]	radius_imu_x	radius_imu_y	radius_imu_z	
          1.13000000	          0.54073059	         -0.13837192	          0.82973709	         -0.26343880	          0.90890404	          0.32325446	         -0.79888073	         -0.39337852	          0.45501969	         -0.61768416	          0.97863648	          0.25052204	
          1.14000000	          0.51259918	         -0.13992074	          0.84715067	         -0.27033299	          0.91015691	          0.31390201	         -0.81496144	         -0.38991869	          0.42872050	         -0.63200061	          1.01059974	          0.26647168	
          1.15000000	          0.49227263	         -0.14138829	          0.85888126	         -0.27482395	          0.91100199	          0.30748525	         -0.82591734	         -0.38740771	          0.40960445	         -0.64394144	          1.03308136	          0.27968695	
          1.16000000	          0.47928516	         -0.14371504	          0.86581275	         -0.27691009	          0.91135208	          0.30456227	         -0.83283043	         -0.38572447	          0.39700139	         -0.65439128	          1.04677240	          0.29132182	
          1.17000000	          0.47223979	         -0.14691486	          0.86914073	         -0.27722064	          0.91122693	          0.30465422	         -0.83674267	         -0.38481359	          0.38958979	         -0.66366061	          1.05346223	          0.30161096	
          1.18000000	          0.46947927	         -0.15068281	          0.86999075	         -0.27651528	          0.91067175	          0.30694668	         -0.83852759	         -0.38467084	          0.38587541	         -0.67196370	          1.05518356	          0.31057111	
          1.19000000	          0.46944605	         -0.15470112	          0.86930315	         -0.27546239	          0.90973362	          0.31065290	         -0.83889265	         -0.38529510	          0.38445651	         -0.67961893	          1.05379074	          0.31833243	
          1.20000000	          0.47083202	         -0.15875775	          0.86782094	         -0.27456841	          0.90845383	          0.31515682	         -0.83840885	         -0.38666214	          0.38413929	         -0.68707069	          1.05079987	          0.32521352	
          1.21000000	          0.47260956	         -0.16276326	          0.86611104	         -0.27417890	          0.90686544	          0.32003281	         -0.83753575	         -0.38871993	          0.38396702	         -0.69483093	          1.04736884	          0.33167071	
          1.22000000	          0.47401341	         -0.16672096	          0.86458973	         -0.27450554	          0.90499437	          0.32501061	         -0.83663492	         -0.39139405	          0.38321365	         -0.70340078	          1.04433331	          0.33820809	
          1.23000000	          0.47451021	         -0.17068226	          0.86354364	         -0.27565730	          0.90286339	          0.32992539	         -0.83597435	         -0.39459507	          0.38136808	         -0.71320112	          1.04225517	          0.34529173	
          1.24000000	          0.47376777	         -0.17470489	          0.86314675	         -0.27766746	          0.90049727	          0.33467214	         -0.83573015	         -0.39822464	          0.37811672	         -0.72452333	          1.04146863	          0.35328561	
          1.25000000	          0.47162746	         -0.17882185	          0.86347570	         -0.28051359	          0.89792778	          0.33917228	         -0.83599023	         -0.40217963	          0.37332544	         -0.73750041	          1.04212044	          0.36241202	
          1.26000000	          0.46808209	         -0.18302402	          0.86452378	         -0.28412898	          0.89519734	          0.34335470	         -0.83676154	         -0.40635445	          0.36702341	         -0.75209202	          1.04420207	          0.37273103	
          1.27000000	          0.46326187	         -0.18725549	          0.86621234	         -0.28840446	          0.89236154	          0.34715089	         -0.83798050	         -0.41064127	          0.35939175	         -0.76807488	          1.04757155	          0.38413117	
          1.28000000	          0.45742894	         -0.19142012	          0.86839916	         -0.29318145	          0.88949014	          0.35050239	         -0.83952570	         -0.41492846	          0.35075770	         -0.78503409	          1.05196477	          0.39632639	
          1.29000000	          0.45097457	         -0.19539837	          0.87088542	         -0.29824038	          0.88666596	          0.35337819	         -0.84123398	         -0.41909778	          0.34158812	         -0.80236150	          1.05700097	          0.40886313	
          1.30000000	          0.44440680	         -0.19907541	          0.87342520	         -0.30329231	          0.88398009	          0.35579906	         -0.84292133	         -0.42302267	          0.33246872	         -0.81928237	          1.06219242	          0.42115418	
          1.31000000	          0.43831582	         -0.20238077	          0.87574041	         -0.30798275	          0.88152110	          0.35786476	         -0.84440859	         -0.42657072	          0.32405486	         -0.83493807	          1.06696732	          0.43256040	
          1.32000000	          0.43332017	         -0.20533351	          0.87753734	         -0.31191329	          0.87935711	          0.35977934	         -0.84554345	         -0.42961520	          0.31699693	         -0.84852916	          1.07070200	          0.44251856	
          1.33000000	          0.43002887	         -0.20806322	          0.87851287	         -0.31468364	          0.87751319	          0.36186296	         -0.84619701	         -0.43206515	          0.31188191	         -0.85944647	          1.07274026	          0.45063257	
          1.34000000	          0.42911775	         -0.21072199	          0.87832466	         -0.31596127	          0.87595289	          0.36452025	         -0.84618345	         -0.43393868	          0.30930694	         -0.86715538	          1.07234641	          0.45646900	
          1.35000000	          0.43154246	         -0.21309251	          0.87656300	         -0.31566000	          0.87459792	          0.36801800	         -0.84506205	         -0.43551127	          0.31016136	         -0.87050381	          1.06867381	          0.45866944	
          1.36000000	          0.45273662	         -0.20623308	          0.86746612	         -0.31437650	          0.87348565	          0.37173947	         -0.83438418	         -0.44101103	          0.33062411	         -0.84387000	          1.05008621	          0.42743943	
          1.37000000	          0.43259060	         -0.21988880	          0.87436508	         -0.31305447	          0.87282994	          0.37438589	         -0.84549528	         -0.43567971	          0.30874086	         -0.88119896	          1.06412588	          0.47027105	
